<?xml version="1.0" encoding="UTF-8"?>
<svg id="Layer_1" data-name="Layer 1" xmlns="http://www.w3.org/2000/svg" viewBox="0 0 393.55 111.72">
  <defs>
    <style>
      .cls-1 {
        fill: #163652;
        stroke-width: 0px;
      }
    </style>
  </defs>
  <g>
    <path class="cls-1" d="M73.86,42.93c-2.77,0-5.17-.55-7.21-1.66-2.03-1.11-3.61-2.67-4.71-4.7s-1.66-4.43-1.66-7.22.59-5.43,1.77-7.57c1.18-2.14,2.84-3.81,4.97-5,2.13-1.19,4.63-1.79,7.51-1.79,1.45,0,2.92.18,4.41.55,1.49.37,2.82.88,3.99,1.52l-1.02,5.75c-2.45-1.21-4.93-1.82-7.45-1.82-1.58,0-2.95.33-4.12,1-1.17.67-2.08,1.6-2.72,2.8-.64,1.2-.96,2.63-.96,4.27,0,2.52.67,4.48,2.01,5.88,1.34,1.39,3.23,2.09,5.66,2.09.53,0,1.07-.04,1.6-.12.53-.08,1.07-.21,1.6-.38v-4.39h-4.09v-5.25h9.91v13.93c-1.36.67-2.87,1.19-4.5,1.55-1.64.37-3.3.55-4.98.55Z"/>
    <path class="cls-1" d="M87.25,42.54v-18.44h5.62l.06,3.25c.34-1.14.87-2.03,1.6-2.66.72-.63,1.57-.95,2.52-.95.72,0,1.35.12,1.88.36l-.48,6.11c-.28-.12-.62-.22-1.02-.3-.4-.08-.78-.12-1.12-.12-2.19,0-3.29,1.62-3.29,4.86v7.9h-5.78Z"/>
    <path class="cls-1" d="M107.57,43.11c-1.43,0-2.69-.41-3.79-1.23-1.1-.82-1.95-1.96-2.57-3.43-.62-1.46-.93-3.15-.93-5.06s.33-3.56.99-5.04c.66-1.48,1.55-2.65,2.68-3.52,1.13-.87,2.4-1.3,3.8-1.3,1.07,0,2.02.26,2.88.77.85.51,1.51,1.23,1.98,2.16l.06-2.36h5.46v18.44h-5.46l-.06-2.36c-.49.93-1.17,1.65-2.04,2.16-.87.51-1.87.77-3,.77ZM109.36,37.36c.96,0,1.75-.38,2.36-1.14.62-.76.93-1.73.93-2.89s-.31-2.16-.93-2.91c-.62-.75-1.41-1.13-2.36-1.13s-1.78.38-2.4,1.13c-.62.75-.93,1.72-.93,2.91s.31,2.13.93,2.89c.62.76,1.42,1.14,2.4,1.14Z"/>
    <path class="cls-1" d="M122.04,42.54v-18.44h5.69l.06,2.29c.43-.91,1.05-1.61,1.89-2.11.83-.5,1.79-.75,2.88-.75,1.85,0,3.26.66,4.23,1.98.97,1.32,1.45,3.26,1.45,5.81v11.22h-5.78v-10c0-2.17-.74-3.25-2.21-3.25-.79,0-1.39.3-1.81.91-.42.61-.62,1.47-.62,2.59v9.75h-5.78Z"/>
    <path class="cls-1" d="M143.52,42.54v-13.25h-2.78v-5.18h2.78v-4.75h5.78v4.75h3.36v5.18h-3.36v13.25h-5.78Z"/>
    <path class="cls-1" d="M161.35,42.54l9.52-27.15h6.68l9.52,27.15h-6.77l-1.89-6.32h-8.82l-1.89,6.32h-6.36ZM171.19,30.82h5.62l-2.81-9.54-2.81,9.54Z"/>
    <path class="cls-1" d="M189.69,42.54v-18.44h5.62l.06,3.25c.34-1.14.87-2.03,1.6-2.66.72-.63,1.57-.95,2.52-.95.72,0,1.35.12,1.88.36l-.48,6.11c-.28-.12-.62-.22-1.02-.3-.4-.08-.78-.12-1.12-.12-2.19,0-3.29,1.62-3.29,4.86v7.9h-5.78Z"/>
    <path class="cls-1" d="M214.39,43.11c-1.07,0-2.02-.25-2.88-.75-.85-.5-1.52-1.21-2.01-2.14l-.06,2.32h-5.43V13.6h5.78v12.47c1.07-1.69,2.66-2.54,4.79-2.54,1.43,0,2.68.41,3.77,1.23,1.09.82,1.94,1.97,2.57,3.43.63,1.46.94,3.15.94,5.06s-.33,3.53-.99,5.02c-.66,1.49-1.55,2.67-2.67,3.54s-2.39,1.3-3.82,1.3ZM212.79,37.36c.98,0,1.78-.38,2.4-1.14.62-.76.93-1.73.93-2.89s-.31-2.16-.93-2.91c-.62-.75-1.42-1.13-2.4-1.13s-1.78.38-2.4,1.13c-.62.75-.93,1.72-.93,2.91s.31,2.13.93,2.89c.62.76,1.42,1.14,2.4,1.14Z"/>
    <path class="cls-1" d="M234.2,43.11c-2.07,0-3.84-.39-5.32-1.18-1.48-.79-2.62-1.91-3.42-3.38s-1.2-3.21-1.2-5.23.36-3.63,1.09-5.11c.72-1.48,1.74-2.63,3.04-3.45,1.3-.82,2.8-1.23,4.51-1.23s3.1.38,4.31,1.13c1.21.75,2.15,1.81,2.8,3.18.65,1.37.97,3.01.97,4.91,0,.33-.01.67-.03,1-.02.33-.05.68-.1,1.04h-10.96c.26,1.24.8,2.14,1.65,2.7s1.99.84,3.44.84c.89,0,1.82-.11,2.76-.34.95-.23,1.78-.53,2.51-.91l.51,4.64c-.89.45-1.91.8-3.05,1.04s-2.31.36-3.5.36ZM232.79,27.93c-1.66,0-2.66,1.12-3,3.36h5.82c0-.26-.02-.49-.06-.68-.15-.83-.46-1.49-.93-1.97-.47-.48-1.08-.71-1.82-.71Z"/>
    <path class="cls-1" d="M251.16,43.11c-1.43,0-2.69-.41-3.79-1.23-1.1-.82-1.95-1.96-2.57-3.43-.62-1.46-.93-3.15-.93-5.06s.33-3.56.99-5.04c.66-1.48,1.55-2.65,2.68-3.52,1.13-.87,2.4-1.3,3.8-1.3,1.98,0,3.51.83,4.6,2.5v-12.43h5.78v28.94h-5.46l-.06-2.36c-1.04,1.95-2.73,2.93-5.05,2.93ZM252.95,37.36c.96,0,1.75-.38,2.36-1.14.62-.76.93-1.73.93-2.89s-.31-2.16-.93-2.91c-.62-.75-1.41-1.13-2.36-1.13s-1.78.38-2.4,1.13c-.62.75-.93,1.72-.93,2.91s.31,2.13.93,2.89c.62.76,1.42,1.14,2.4,1.14Z"/>
    <path class="cls-1" d="M279.54,42.54v-11.04l-8.75-16.11h7.12l4.92,10.79,4.92-10.79h6.93l-8.79,16.11v11.04h-6.36Z"/>
    <path class="cls-1" d="M294.62,42.54v-18.44h5.69l.06,2.29c.43-.91,1.05-1.61,1.89-2.11.83-.5,1.79-.75,2.88-.75,1.85,0,3.26.66,4.23,1.98.97,1.32,1.45,3.26,1.45,5.81v11.22h-5.78v-10c0-2.17-.74-3.25-2.21-3.25-.79,0-1.39.3-1.81.91-.42.61-.62,1.47-.62,2.59v9.75h-5.78Z"/>
    <path class="cls-1" d="M314.59,42.54v-18.44h5.69l.06,2.29c.43-.91,1.05-1.61,1.89-2.11.83-.5,1.79-.75,2.88-.75,1.85,0,3.26.66,4.23,1.98.97,1.32,1.45,3.26,1.45,5.81v11.22h-5.78v-10c0-2.17-.74-3.25-2.21-3.25-.79,0-1.39.3-1.81.91-.42.61-.62,1.47-.62,2.59v9.75h-5.78Z"/>
    <path class="cls-1" d="M337.47,21.21c-.92,0-1.69-.33-2.32-1-.63-.67-.94-1.48-.94-2.43,0-1,.31-1.83.94-2.48.63-.65,1.4-.98,2.32-.98s1.68.33,2.3.98c.62.66.93,1.48.93,2.48s-.31,1.76-.93,2.43c-.62.67-1.38,1-2.3,1ZM334.56,42.54v-18.44h5.78v18.44h-5.78Z"/>
    <path class="cls-1" d="M61.4,77.21v-27.15h16.9v5.47h-10.99v5.22h9.68v5.47h-9.68v5.54h11.44v5.47h-17.35Z"/>
    <path class="cls-1" d="M82.52,77.21v-18.44h5.69l.06,2.29c.43-.91,1.05-1.61,1.89-2.11.83-.5,1.79-.75,2.88-.75,1.85,0,3.26.66,4.23,1.98.97,1.32,1.45,3.26,1.45,5.81v11.22h-5.78v-10c0-2.17-.74-3.25-2.21-3.25-.79,0-1.39.3-1.81.91-.42.61-.62,1.47-.62,2.59v9.75h-5.78Z"/>
    <path class="cls-1" d="M111.66,77.79c-2.07,0-3.84-.39-5.32-1.18-1.48-.79-2.62-1.91-3.42-3.38s-1.2-3.21-1.2-5.23.36-3.63,1.09-5.11c.72-1.48,1.74-2.63,3.04-3.45,1.3-.82,2.8-1.23,4.51-1.23s3.1.38,4.31,1.12c1.21.75,2.15,1.81,2.8,3.18.65,1.37.97,3.01.97,4.91,0,.33-.01.67-.03,1-.02.33-.05.68-.1,1.04h-10.96c.26,1.24.8,2.14,1.65,2.7.84.56,1.99.84,3.44.84.89,0,1.82-.11,2.76-.34.95-.23,1.78-.53,2.51-.91l.51,4.64c-.89.45-1.91.8-3.05,1.04-1.14.24-2.31.36-3.5.36ZM110.25,62.6c-1.66,0-2.66,1.12-3,3.36h5.82c0-.26-.02-.49-.06-.68-.15-.83-.46-1.49-.93-1.96-.47-.48-1.08-.71-1.82-.71Z"/>
    <path class="cls-1" d="M121.76,77.21v-18.44h5.62l.06,3.25c.34-1.14.87-2.03,1.6-2.66.72-.63,1.57-.95,2.52-.95.72,0,1.35.12,1.88.36l-.48,6.11c-.28-.12-.62-.22-1.02-.3-.4-.08-.78-.12-1.12-.12-2.19,0-3.29,1.62-3.29,4.86v7.9h-5.78Z"/>
    <path class="cls-1" d="M143.13,86.29c-.79,0-1.6-.07-2.43-.2-.83-.13-1.6-.31-2.32-.54-.71-.23-1.29-.48-1.74-.77l.61-5.29c.66.41,1.47.74,2.43,1.02.96.27,1.84.41,2.65.41,3.2,0,4.79-1.67,4.79-5v-1.36c-1.07,1.93-2.73,2.89-4.98,2.89-1.45,0-2.73-.4-3.83-1.21-1.11-.81-1.97-1.93-2.59-3.38-.62-1.44-.93-3.09-.93-4.95s.33-3.52.99-4.98c.66-1.46,1.55-2.62,2.68-3.46s2.41-1.27,3.83-1.27c1.04,0,1.99.25,2.83.75.84.5,1.51,1.23,2,2.18l.06-2.36h5.46v16.93c0,3.45-.8,6.08-2.41,7.88-1.61,1.8-3.98,2.7-7.11,2.7ZM143.87,71.86c.96,0,1.75-.38,2.36-1.12s.93-1.71.93-2.88-.31-2.16-.93-2.91-1.41-1.12-2.36-1.12-1.78.38-2.4,1.12c-.62.75-.93,1.72-.93,2.91s.31,2.13.93,2.88c.62.75,1.42,1.12,2.4,1.12Z"/>
    <path class="cls-1" d="M157.67,85.97l4.12-9.75-6.77-17.44h6.36l3.35,10.83,3.1-10.83h6.2l-10.54,27.19h-5.82Z"/>
    <path class="cls-1" d="M191.25,77.79c-1.09,0-2.18-.1-3.27-.3-1.1-.2-2.11-.48-3.04-.82-.93-.34-1.69-.74-2.28-1.2l.58-5.79c1.02.71,2.24,1.29,3.64,1.73,1.41.44,2.77.66,4.09.66,1.19,0,2.1-.22,2.73-.66.63-.44.94-1.08.94-1.91,0-.5-.12-.92-.37-1.27-.25-.34-.67-.67-1.26-.96-.6-.3-1.44-.62-2.52-.98-2.62-.81-4.5-1.88-5.66-3.2-1.15-1.32-1.73-3.07-1.73-5.23,0-2.6.83-4.64,2.48-6.13,1.65-1.49,3.9-2.23,6.76-2.23,1.38,0,2.76.19,4.14.57s2.52.89,3.43,1.54l-.8,5.61c-.85-.62-1.88-1.11-3.08-1.46-1.2-.36-2.34-.54-3.4-.54-2.22,0-3.32.8-3.32,2.39,0,.69.26,1.24.77,1.64.51.41,1.46.83,2.84,1.29,2.9.93,4.97,2.05,6.23,3.38,1.26,1.32,1.89,3.07,1.89,5.23,0,2.74-.86,4.87-2.57,6.38-1.72,1.51-4.12,2.27-7.21,2.27Z"/>
    <path class="cls-1" d="M210.68,77.79c-1.43,0-2.69-.41-3.79-1.23-1.1-.82-1.95-1.96-2.57-3.43-.62-1.46-.93-3.15-.93-5.06s.33-3.56.99-5.04,1.55-2.65,2.68-3.52c1.13-.87,2.4-1.3,3.8-1.3,1.07,0,2.02.26,2.88.77.85.51,1.51,1.23,1.98,2.16l.06-2.36h5.46v18.44h-5.46l-.06-2.36c-.49.93-1.17,1.65-2.04,2.16-.87.51-1.87.77-3,.77ZM212.47,72.03c.96,0,1.75-.38,2.36-1.14.62-.76.93-1.73.93-2.89s-.31-2.16-.93-2.91c-.62-.75-1.41-1.13-2.36-1.13s-1.78.38-2.4,1.13c-.62.75-.93,1.72-.93,2.91s.31,2.13.93,2.89c.62.76,1.42,1.14,2.4,1.14Z"/>
    <path class="cls-1" d="M229.69,77.21l-6.07-18.44h6.42l2.78,12.22,3.04-12.22h6.04l-6.1,18.44h-6.1Z"/>
    <path class="cls-1" d="M247.14,55.89c-.92,0-1.69-.33-2.32-1-.63-.67-.94-1.48-.94-2.43,0-1,.31-1.83.94-2.48.63-.65,1.4-.98,2.32-.98s1.68.33,2.3.98c.62.66.93,1.48.93,2.48s-.31,1.76-.93,2.43c-.62.67-1.38,1-2.3,1ZM244.23,77.21v-18.44h5.78v18.44h-5.78Z"/>
    <path class="cls-1" d="M253.91,77.21v-18.44h5.69l.06,2.29c.43-.91,1.05-1.61,1.89-2.11.83-.5,1.79-.75,2.88-.75,1.85,0,3.26.66,4.23,1.98.97,1.32,1.45,3.26,1.45,5.81v11.22h-5.78v-10c0-2.17-.74-3.25-2.21-3.25-.79,0-1.39.3-1.81.91-.42.61-.62,1.47-.62,2.59v9.75h-5.78Z"/>
    <path class="cls-1" d="M281.45,86.29c-.79,0-1.6-.07-2.43-.2-.83-.13-1.6-.31-2.32-.54-.71-.23-1.29-.48-1.74-.77l.61-5.29c.66.41,1.47.74,2.43,1.02.96.27,1.84.41,2.65.41,3.2,0,4.79-1.67,4.79-5v-1.36c-1.07,1.93-2.73,2.89-4.98,2.89-1.45,0-2.73-.4-3.83-1.21-1.11-.81-1.97-1.93-2.59-3.38-.62-1.44-.93-3.09-.93-4.95s.33-3.52.99-4.98c.66-1.46,1.55-2.62,2.68-3.46s2.41-1.27,3.83-1.27c1.04,0,1.99.25,2.83.75.84.5,1.51,1.23,2,2.18l.06-2.36h5.46v16.93c0,3.45-.8,6.08-2.41,7.88-1.61,1.8-3.98,2.7-7.11,2.7ZM282.19,71.86c.96,0,1.75-.38,2.36-1.12s.93-1.71.93-2.88-.31-2.16-.93-2.91-1.41-1.12-2.36-1.12-1.78.38-2.4,1.12c-.62.75-.93,1.72-.93,2.91s.31,2.13.93,2.88c.62.75,1.42,1.12,2.4,1.12Z"/>
    <path class="cls-1" d="M314.75,77.61c-2.77,0-5.17-.55-7.21-1.66s-3.61-2.67-4.71-4.7c-1.11-2.02-1.66-4.43-1.66-7.22s.59-5.43,1.77-7.57c1.18-2.14,2.84-3.81,4.97-5,2.13-1.19,4.63-1.79,7.51-1.79,1.45,0,2.92.18,4.41.55,1.49.37,2.82.88,3.99,1.52l-1.02,5.75c-2.45-1.21-4.93-1.82-7.45-1.82-1.58,0-2.95.33-4.12,1-1.17.67-2.08,1.6-2.72,2.8-.64,1.2-.96,2.63-.96,4.27,0,2.52.67,4.48,2.01,5.88s3.23,2.09,5.66,2.09c.53,0,1.07-.04,1.6-.12.53-.08,1.07-.21,1.6-.38v-4.39h-4.09v-5.25h9.91v13.93c-1.36.67-2.87,1.19-4.5,1.55-1.64.37-3.3.55-4.98.55Z"/>
    <path class="cls-1" d="M328.14,77.21v-18.44h5.62l.06,3.25c.34-1.14.87-2.03,1.6-2.66.72-.63,1.57-.95,2.52-.95.72,0,1.35.12,1.88.36l-.48,6.11c-.28-.12-.62-.22-1.02-.3-.4-.08-.78-.12-1.12-.12-2.19,0-3.29,1.62-3.29,4.86v7.9h-5.78Z"/>
    <path class="cls-1" d="M348.46,77.79c-1.43,0-2.69-.41-3.79-1.23-1.1-.82-1.95-1.96-2.57-3.43-.62-1.46-.93-3.15-.93-5.06s.33-3.56.99-5.04,1.55-2.65,2.68-3.52c1.13-.87,2.4-1.3,3.8-1.3,1.07,0,2.02.26,2.88.77.85.51,1.51,1.23,1.98,2.16l.06-2.36h5.46v18.44h-5.46l-.06-2.36c-.49.93-1.17,1.65-2.04,2.16-.87.51-1.87.77-3,.77ZM350.25,72.03c.96,0,1.75-.38,2.36-1.14.62-.76.93-1.73.93-2.89s-.31-2.16-.93-2.91c-.62-.75-1.41-1.13-2.36-1.13s-1.78.38-2.4,1.13c-.62.75-.93,1.72-.93,2.91s.31,2.13.93,2.89c.62.76,1.42,1.14,2.4,1.14Z"/>
    <path class="cls-1" d="M362.93,77.21v-18.44h5.69l.06,2.29c.43-.91,1.05-1.61,1.89-2.11.83-.5,1.79-.75,2.88-.75,1.85,0,3.26.66,4.23,1.98.97,1.32,1.45,3.26,1.45,5.81v11.22h-5.78v-10c0-2.17-.74-3.25-2.21-3.25-.79,0-1.39.3-1.81.91-.42.61-.62,1.47-.62,2.59v9.75h-5.78Z"/>
    <path class="cls-1" d="M384.41,77.21v-13.25h-2.78v-5.18h2.78v-4.75h5.78v4.75h3.36v5.18h-3.36v13.25h-5.78Z"/>
  </g>
  <polygon class="cls-1" points="53.67 0 8.75 0 17.09 47.39 0 47.39 24.4 111.72 22.71 77.58 40.08 77.58 53.67 0"/>
</svg>