<?xml version="1.0" encoding="UTF-8"?>
<svg id="Layer_1" xmlns="http://www.w3.org/2000/svg" version="1.1" viewBox="0 0 250 100">
  <!-- Generator: Adobe Illustrator 29.2.1, SVG Export Plug-In . SVG Version: 2.1.0 Build 116)  -->
  <defs>
    <style>
      .st0 {
        fill: none;
        stroke: #231f20;
        stroke-width: 1.09px;
      }

      .st1 {
        fill: #231f20;
      }
    </style>
  </defs>
  <line class="st0" x1="110.6" y1="12.17" x2="110.6" y2="87.7"/>
  <g>
    <path class="st1" d="M125,15.55h1.59l3.83,8.38h.03v-8.38h1.22v10.16h-1.59l-3.83-8.32h-.03v8.32h-1.22v-10.16Z"/>
    <path class="st1" d="M136.29,18.19c1.96,0,2.98,1.48,2.98,3.81s-1.02,3.81-2.98,3.81-2.98-1.48-2.98-3.81,1.02-3.81,2.98-3.81ZM136.29,24.82c1.17,0,1.7-.96,1.7-2.82s-.54-2.82-1.7-2.82-1.7.96-1.7,2.82.54,2.82,1.7,2.82Z"/>
    <path class="st1" d="M146.02,24.34c0,.45.04.92.06,1.37h-1.18l-.04-1.09h-.03c-.32.58-.87,1.19-1.95,1.19-1.53,0-2.56-1.25-2.56-3.81s1.03-3.81,2.56-3.81c.84,0,1.4.33,1.89,1.12h.03v-4.51h1.22v9.55ZM143.17,19.17c-1.12,0-1.63.96-1.63,2.82s.51,2.82,1.63,2.82,1.63-.96,1.63-2.82-.51-2.82-1.63-2.82Z"/>
    <path class="st1" d="M153.02,24.34c0,.45.04.92.06,1.37h-1.18l-.04-1.09h-.03c-.32.58-.87,1.19-1.95,1.19-1.53,0-2.56-1.25-2.56-3.81s1.03-3.81,2.56-3.81c.84,0,1.4.33,1.89,1.12h.03v-4.51h1.22v9.55ZM150.17,19.17c-1.12,0-1.63.96-1.63,2.82s.51,2.82,1.63,2.82,1.63-.96,1.63-2.82-.51-2.82-1.63-2.82Z"/>
    <path class="st1" d="M156.07,15.23v1.45h-1.34v-1.45h1.34ZM154.79,18.29h1.22v7.42h-1.22v-7.42Z"/>
    <path class="st1" d="M157.91,19.89c0-.54-.04-1.08-.06-1.6h1.18l.04,1.16h.03c.39-.9,1.02-1.27,2.11-1.27v1.21c-.15-.03-.31-.04-.47-.04-.95,0-1.61.82-1.61,2.43v3.93h-1.22v-5.82Z"/>
    <path class="st1" d="M171.05,26.03c0,2.05-1.54,2.91-3.17,2.91-.63,0-1.63-.23-2.17-.45l.06-1.24c.52.35,1.37.64,2.04.64,1.5,0,2.08-.89,2.08-2.17v-1.16h-.03c-.48.84-1.14,1.25-1.95,1.25-1.53,0-2.56-1.25-2.56-3.81s1.03-3.81,2.69-3.81c.74,0,1.41.47,1.82,1.18h.03l.04-1.08h1.18c-.01.44-.06.9-.06,1.35v6.39ZM168.19,24.82c1.12,0,1.63-.96,1.63-2.82s-.51-2.82-1.63-2.82-1.63.96-1.63,2.82.51,2.82,1.63,2.82Z"/>
    <path class="st1" d="M172.99,18.8c.61-.39,1.37-.61,2.1-.61,1.09,0,1.75.47,1.98.7.32.32.64.77.64,1.82v3.87c0,.44.03.87.06,1.14h-1.11l-.07-1h-.03c-.33.57-.95,1.11-2.08,1.11-1.22,0-2.14-.71-2.14-2.14s.95-2.5,3.49-2.5h.71v-.33c0-.55-.04-.87-.28-1.19-.25-.33-.73-.47-1.24-.47-.76,0-1.48.3-1.91.77l-.13-1.15ZM176.55,22.07c-.22-.03-.52-.03-.86-.03-1.44,0-2.12.68-2.12,1.54,0,.79.41,1.3,1.25,1.3,1.06,0,1.73-.86,1.73-1.88v-.93Z"/>
    <path class="st1" d="M179.44,19.89c0-.54-.04-1.08-.06-1.6h1.18l.04,1.11h.03c.39-.84,1.02-1.21,1.88-1.21,1.3,0,2.17.74,2.17,2.37v5.15h-1.22v-4.79c0-1.18-.44-1.69-1.22-1.69-.96,0-1.57.67-1.57,2.01v4.47h-1.22v-5.82Z"/>
    <path class="st1" d="M124.84,32.75h2.39v8.32h3.36v1.83h-5.75v-10.16Z"/>
    <path class="st1" d="M135.14,43.6c-.57,1.77-1.37,2.53-2.65,2.53-.41,0-.99-.07-1.38-.19l.07-1.7c.14.09.39.18.73.18.77,0,1.14-.86,1.14-1.51l-2.63-7.58h2.39l1.41,5.14h.03l1.34-5.14h2.24l-2.68,8.28Z"/>
    <path class="st1" d="M140.26,35.32l1.11,5.4h.03l1.08-5.4h2.62l1.03,5.4h.03l1.06-5.4h2.18l-2.02,7.58h-2.45l-1.24-5.54h-.03l-1.16,5.54h-2.5l-2.04-7.58h2.3Z"/>
    <path class="st1" d="M153.64,35.2c2.33,0,3.57,1.62,3.57,3.89s-1.24,3.93-3.57,3.93-3.57-1.63-3.57-3.93,1.24-3.89,3.57-3.89ZM153.64,41.45c.8,0,1.18-.87,1.18-2.36s-.38-2.31-1.18-2.31-1.18.83-1.18,2.31.38,2.36,1.18,2.36Z"/>
    <path class="st1" d="M165.37,41.2c0,.96.03,1.35.06,1.7h-2.18c-.03-.29-.06-.68-.06-1.21h-.03c-.23.47-.74,1.32-2.07,1.32-1.7,0-2.66-1.67-2.66-4.09,0-2.04.76-3.73,2.66-3.73,1.06,0,1.67.55,1.95,1.24h.03v-4.45h2.3v9.21ZM161.92,41.36c.95,0,1.15-1.37,1.15-2.24,0-1.21-.22-2.34-1.15-2.34-1.02,0-1.11,1.14-1.11,2.34,0,.79.06,2.24,1.11,2.24Z"/>
    <path class="st1" d="M166.97,36.91c0-.73-.01-1.19-.06-1.59h2.1c.02.45.04.92.06,1.37h.03c.46-.82.79-1.49,2.11-1.49h.33v2.12c-.25-.06-.45-.09-.77-.09-1.34,0-1.5,1.16-1.5,2.27v3.39h-2.3v-5.99Z"/>
    <path class="st1" d="M172.89,35.69c.6-.19,1.61-.48,2.44-.48,2.66,0,3.27,1.11,3.27,2.79v2.77c0,1.12.01,1.63.06,2.14h-2.1l-.06-1.05h-.03c-.1.47-.99,1.16-2.08,1.16-1.41,0-2.34-.92-2.34-2.3,0-2.53,2.95-2.55,3.75-2.55h.7c0-1.46-1.08-1.46-1.41-1.46-.58,0-1.21.13-2.11.67l-.1-1.7ZM176.52,39.25c-.92,0-2.36.06-2.36,1.33,0,.99.8.99.99.99.2,0,1.37-.03,1.37-1.88v-.44Z"/>
    <path class="st1" d="M186.64,39.72h-4.47c0,.9.58,1.73,1.88,1.73.79,0,1.57-.29,2.14-.6l.04,1.73c-.74.28-1.62.44-2.4.44-2.66,0-3.84-1.61-3.84-3.93,0-2.04,1.19-3.89,3.36-3.89.68,0,3.29,0,3.29,3.96v.55ZM184.55,38.47c0-.96-.25-1.86-1.19-1.86-1.18,0-1.18,1.46-1.18,1.86h2.37Z"/>
    <path class="st1" d="M187.4,35.32h1.31v-1.56l2.24-.71v2.27h1.49v1.61h-1.49v3.48c0,.74.34.95.77.95.32,0,.52-.06.76-.16v1.61c-.23.09-.86.2-1.6.2-1.19,0-2.23-.58-2.23-2.24v-3.84h-1.25v-1.61Z"/>
    <path class="st1" d="M193.66,31.99h2.3v4.45h.03c.26-.84,1.11-1.24,1.94-1.24,1.67,0,2.23,1.22,2.23,2.74v4.96h-2.3v-4.67c0-.95-.42-1.19-.89-1.19-.74,0-1,.64-1,1.61v4.25h-2.3v-10.91Z"/>
    <path class="st1" d="M212.53,35.05c-.36-.2-.98-.58-2.07-.58-1.6,0-2.62,1.3-2.62,3.35s1.15,3.32,2.66,3.32c1.16,0,1.85-.44,2.08-.54l.09,2.12c-.41.13-1.25.36-2.55.36-2.78,0-4.73-2.08-4.73-5.3,0-3.73,2.5-5.21,4.57-5.21,1.51,0,2.29.34,2.68.49l-.12,1.98Z"/>
    <path class="st1" d="M217.88,43.6c-.57,1.77-1.37,2.53-2.65,2.53-.41,0-.99-.07-1.38-.19l.07-1.7c.14.09.39.18.73.18.77,0,1.14-.86,1.14-1.51l-2.64-7.58h2.39l1.41,5.14h.03l1.34-5.14h2.24l-2.68,8.28Z"/>
    <path class="st1" d="M229.67,38.23c0-.87-.36-1.19-.87-1.19-.68,0-.95.49-.95,1.06v4.8h-2.3v-4.67c0-.96-.42-1.19-.8-1.19-.76,0-1.02.65-1.02,1.61v4.25h-2.3v-5.99c0-.73-.02-1.19-.06-1.59h2.1c.03.33.06.76.06,1.27h.03c.35-.83.93-1.38,2.14-1.38,1.09,0,1.65.51,1.97,1.27.33-.71.87-1.27,2.08-1.27,1.67,0,2.23,1.22,2.23,2.74v4.96h-2.3v-4.67Z"/>
    <path class="st1" d="M233.57,36.91c0-.73-.01-1.19-.06-1.59h2.1c.01.45.04.92.06,1.37h.03c.47-.82.79-1.49,2.11-1.49h.34v2.12c-.25-.06-.45-.09-.77-.09-1.34,0-1.5,1.16-1.5,2.27v3.39h-2.3v-5.99Z"/>
    <path class="st1" d="M245.72,41.32c0,.73.02,1.19.06,1.59h-2.1c-.03-.33-.06-.76-.06-1.27h-.03c-.35.83-.93,1.38-2.14,1.38-1.67,0-2.23-1.22-2.23-2.74v-4.96h2.3v4.67c0,.95.42,1.19.89,1.19.74,0,1-.64,1-1.62v-4.25h2.3v5.99Z"/>
    <path class="st1" d="M129.19,56.7c-.48-.29-1.11-.46-1.73-.46-.96,0-1.59.65-1.59,1.51,0,.65.26,1.06,1.72,1.91,1.57.9,2.1,1.79,2.1,2.95,0,1.62-1,2.88-2.95,2.88-.82,0-1.59-.17-2.12-.44v-1.32c.58.35,1.34.65,1.93.65,1.15,0,1.8-.77,1.8-1.6,0-.79-.2-1.24-1.57-2.07-1.83-1.11-2.24-1.73-2.24-3.04,0-1.67,1.28-2.55,2.82-2.55.67,0,1.38.14,1.83.33v1.24Z"/>
    <path class="st1" d="M131.11,59.34c0-.45-.04-.92-.06-1.37h1.18l.04,1.09h.03c.32-.58.87-1.19,1.95-1.19,1.53,0,2.56,1.25,2.56,3.81s-1.03,3.81-2.56,3.81c-.84,0-1.4-.33-1.89-1.12h-.03v4.16h-1.22v-9.2ZM133.96,64.5c1.12,0,1.63-.96,1.63-2.82s-.51-2.82-1.63-2.82-1.63.96-1.63,2.82.51,2.82,1.63,2.82Z"/>
    <path class="st1" d="M140.84,57.87c1.96,0,2.98,1.48,2.98,3.81s-1.02,3.81-2.98,3.81-2.98-1.48-2.98-3.81,1.02-3.81,2.98-3.81ZM140.84,64.5c1.16,0,1.7-.96,1.7-2.82s-.54-2.82-1.7-2.82-1.7.96-1.7,2.82.54,2.82,1.7,2.82Z"/>
    <path class="st1" d="M145.23,59.57c0-.54-.04-1.08-.06-1.6h1.18l.04,1.11h.03c.39-.84,1.02-1.21,1.88-1.21,1.29,0,2.17.74,2.17,2.37v5.15h-1.22v-4.79c0-1.18-.44-1.69-1.22-1.69-.96,0-1.57.67-1.57,2.01v4.47h-1.22v-5.82Z"/>
    <path class="st1" d="M151.93,63.95c.55.33,1.14.55,1.75.55.93,0,1.41-.48,1.41-1.05,0-.51-.26-.86-.95-1.17l-.81-.36c-1.06-.48-1.45-.96-1.45-1.91,0-1.22.95-2.15,2.39-2.15.61,0,1.15.1,1.57.26l-.06,1.05c-.38-.18-.9-.32-1.45-.32-.8,0-1.22.44-1.22,1.02s.44.93,1.25,1.25l.44.17c.9.36,1.47.98,1.47,1.89,0,1.28-.68,2.3-2.39,2.3-.77,0-1.47-.16-2.01-.44l.07-1.11Z"/>
    <path class="st1" d="M160.25,57.87c1.96,0,2.98,1.48,2.98,3.81s-1.02,3.81-2.98,3.81-2.98-1.48-2.98-3.81,1.02-3.81,2.98-3.81ZM160.25,64.5c1.16,0,1.7-.96,1.7-2.82s-.54-2.82-1.7-2.82-1.7.96-1.7,2.82.54,2.82,1.7,2.82Z"/>
    <path class="st1" d="M164.64,59.57c0-.54-.04-1.08-.06-1.6h1.18l.04,1.16h.03c.39-.9,1.02-1.27,2.11-1.27v1.21c-.14-.03-.3-.04-.47-.04-.95,0-1.62.82-1.62,2.43v3.93h-1.22v-5.82Z"/>
    <path class="st1" d="M169.87,62.04c0,1.72.67,2.52,2.02,2.52.61,0,1.28-.31,1.7-.61l.06,1.11c-.58.28-1.34.44-2.08.44-1.96,0-2.98-1.48-2.98-3.81s1.02-3.81,2.87-3.81c1.67,0,2.61,1.34,2.61,3.52v.65h-4.19ZM172.83,61.11c0-1.54-.48-2.31-1.45-2.31-.79,0-1.48.58-1.51,2.31h2.97Z"/>
    <path class="st1" d="M180.75,64.02c0,.45.04.92.06,1.37h-1.18l-.04-1.09h-.03c-.32.58-.87,1.19-1.95,1.19-1.53,0-2.56-1.25-2.56-3.81s1.03-3.81,2.56-3.81c.84,0,1.4.33,1.89,1.12h.03v-4.51h1.22v9.55ZM177.9,58.86c-1.12,0-1.63.96-1.63,2.82s.51,2.82,1.63,2.82,1.63-.96,1.63-2.82-.51-2.82-1.63-2.82Z"/>
    <path class="st1" d="M185.78,54.48h1.22v4.51h.03c.49-.79,1.05-1.12,1.89-1.12,1.53,0,2.56,1.25,2.56,3.81s-1.03,3.81-2.56,3.81c-1.08,0-1.63-.61-1.95-1.19h-.03l-.04,1.09h-1.18c.01-.45.06-.92.06-1.37v-9.55ZM188.63,64.5c1.12,0,1.63-.96,1.63-2.82s-.51-2.82-1.63-2.82-1.63.96-1.63,2.82.51,2.82,1.63,2.82Z"/>
    <path class="st1" d="M195.23,66.9c-.36,1.27-.89,1.72-1.82,1.72-.29,0-.61-.03-.83-.09l.06-1.11c.19.09.41.15.67.15.35,0,.61-.16.82-.93l.29-1.14-2.34-7.54h1.28l1.66,6.05h.03l1.54-6.05h1.22l-2.58,8.93Z"/>
    <path class="st1" d="M130.09,74.7h-.03l-1.27,7.89h-2.8l-2.04-10.16h2.3l1.22,7.22h.03l1.21-7.22h2.79l1.24,7.22h.03l1.31-7.22h2.1l-1.99,10.16h-2.79l-1.31-7.89Z"/>
    <path class="st1" d="M143.17,79.4h-4.47c0,.9.58,1.73,1.88,1.73.79,0,1.57-.29,2.14-.6l.04,1.73c-.74.28-1.62.44-2.4.44-2.66,0-3.84-1.61-3.84-3.93,0-2.04,1.19-3.89,3.36-3.89.68,0,3.29,0,3.29,3.96v.55ZM141.07,78.15c0-.96-.25-1.86-1.19-1.86-1.18,0-1.18,1.46-1.18,1.86h2.37Z"/>
    <path class="st1" d="M144.59,71.67h2.3v10.91h-2.3v-10.91Z"/>
    <path class="st1" d="M153.08,76.91c-.61-.25-1.18-.41-1.85-.41-.6,0-.86.29-.86.55,0,.47.33.63,1.59,1.09.79.29,1.59.79,1.59,2.21,0,1.69-1.27,2.34-2.8,2.34-.67,0-1.69-.07-2.49-.36l.06-1.77c.55.33,1.25.52,1.89.52,1.08,0,1.15-.38,1.15-.71s-.6-.48-1.59-.89c-.8-.33-1.59-.97-1.59-2.33,0-.82.58-2.27,2.84-2.27.95,0,1.73.18,2.11.31l-.06,1.72Z"/>
    <path class="st1" d="M154.76,71.67h2.3v4.45h.03c.26-.84,1.11-1.24,1.94-1.24,1.67,0,2.23,1.22,2.23,2.74v4.96h-2.3v-4.67c0-.95-.42-1.19-.89-1.19-.74,0-1.01.64-1.01,1.61v4.25h-2.3v-10.91Z"/>
    <path class="st1" d="M171.13,76.76h3.58v5.46c-.54.25-1.73.54-3.36.54-1.89,0-4.85-.96-4.85-5.31,0-2.49,1.4-5.2,5.27-5.2,1.19,0,2.05.23,2.66.41l-.14,1.99c-.51-.23-1.28-.57-2.33-.57-2.52,0-3.01,2.31-3.01,3.46,0,1.89.87,3.38,2.69,3.38.35,0,.63-.04.83-.15v-2.3h-1.34v-1.72Z"/>
    <path class="st1" d="M179.72,74.89c2.33,0,3.57,1.62,3.57,3.89s-1.24,3.93-3.57,3.93-3.57-1.63-3.57-3.93,1.24-3.89,3.57-3.89ZM179.72,81.13c.8,0,1.18-.87,1.18-2.36s-.38-2.31-1.18-2.31-1.18.83-1.18,2.31.38,2.36,1.18,2.36Z"/>
    <path class="st1" d="M183.95,75h2.39l1.4,5.4h.03l1.38-5.4h2.24l-2.37,7.58h-2.71l-2.36-7.58Z"/>
    <path class="st1" d="M198.71,79.4h-4.47c0,.9.58,1.73,1.88,1.73.79,0,1.57-.29,2.14-.6l.04,1.73c-.74.28-1.62.44-2.4.44-2.66,0-3.84-1.61-3.84-3.93,0-2.04,1.19-3.89,3.36-3.89.68,0,3.29,0,3.29,3.96v.55ZM196.61,78.15c0-.96-.25-1.86-1.19-1.86-1.18,0-1.18,1.46-1.18,1.86h2.37Z"/>
    <path class="st1" d="M200.06,76.59c0-.73-.01-1.19-.06-1.59h2.1c.02.45.04.92.06,1.37h.03c.47-.82.79-1.49,2.11-1.49h.33v2.12c-.25-.06-.45-.09-.77-.09-1.34,0-1.5,1.16-1.5,2.27v3.39h-2.3v-5.99Z"/>
    <path class="st1" d="M209.91,77.91c0-.95-.42-1.19-.89-1.19-.74,0-1,.64-1,1.61v4.25h-2.3v-5.99c0-.73-.01-1.19-.06-1.59h2.1c.03.33.06.76.06,1.27h.03c.35-.83.93-1.38,2.14-1.38,1.67,0,2.23,1.22,2.23,2.74v4.96h-2.3v-4.67Z"/>
    <path class="st1" d="M222.04,77.91c0-.87-.36-1.19-.87-1.19-.68,0-.95.49-.95,1.06v4.8h-2.3v-4.67c0-.96-.42-1.19-.8-1.19-.76,0-1.02.65-1.02,1.61v4.25h-2.3v-5.99c0-.73-.02-1.19-.06-1.59h2.1c.03.33.06.76.06,1.27h.03c.35-.83.93-1.38,2.14-1.38,1.09,0,1.65.51,1.97,1.27.33-.71.87-1.27,2.08-1.27,1.67,0,2.23,1.22,2.23,2.74v4.96h-2.3v-4.67Z"/>
    <path class="st1" d="M232.4,79.4h-4.47c0,.9.58,1.73,1.88,1.73.79,0,1.57-.29,2.14-.6l.04,1.73c-.74.28-1.61.44-2.4.44-2.66,0-3.84-1.61-3.84-3.93,0-2.04,1.19-3.89,3.36-3.89.68,0,3.29,0,3.29,3.96v.55ZM230.31,78.15c0-.96-.25-1.86-1.19-1.86-1.18,0-1.18,1.46-1.18,1.86h2.37Z"/>
    <path class="st1" d="M237.95,77.91c0-.95-.42-1.19-.89-1.19-.74,0-1.01.64-1.01,1.61v4.25h-2.3v-5.99c0-.73-.01-1.19-.06-1.59h2.1c.03.33.06.76.06,1.27h.03c.35-.83.93-1.38,2.14-1.38,1.67,0,2.23,1.22,2.23,2.74v4.96h-2.3v-4.67Z"/>
    <path class="st1" d="M241.25,75h1.31v-1.56l2.24-.71v2.27h1.48v1.61h-1.48v3.48c0,.74.33.95.77.95.32,0,.52-.06.76-.16v1.61c-.23.09-.86.2-1.6.2-1.19,0-2.23-.58-2.23-2.24v-3.84h-1.25v-1.61Z"/>
  </g>
  <g>
    <g>
      <path class="st1" d="M2.13,40.76s.41-1.03,1.24-1.45c.83-.42,1.98-.5,3.34-.34,1.16.12,3.55,1.18,7.01,4.06,4.81,4,6.53,6.47,6.57,6.35.3-.97,1.46-2.85,1.46-2.85-2.27-1.99-10.22-7.19-12.69-8.17-2.78-1.12-6.61-1.42-6.92,2.41Z"/>
      <path class="st1" d="M5.01,35.95c3.36-.84,3.73,1.37,4.44,1.9l2.57,1.57c-3.48-7.7-7.01-3.48-7.01-3.48Z"/>
      <path class="st1" d="M6.49,39.86c7.98,5.85,1.29,8.55,1.29,8.55,1.57.67,2.81.22,3.5-.8.25-.38.48-.85.61-1.22.22-.63.25-1.14.25-1.14,2.83,2.77,5.91,7.51,7.92,10.02-.61-2.44-.14-3.53-.33-3.76-2.4-2.89-3.2-3.92-4.77-5.66-4.75-5.25-8.47-5.98-8.47-5.98"/>
    </g>
    <path class="st1" d="M39.55,39.3c-.37-.96-.25-3.73-.15-4.23.4-1.06.75-2.1.97-3.09l.18.09,1.25.79c-.52-.65-1.02-2.36-1.28-3.4-.02-.13-.05-.27-.08-.4-.55-2.22-1.67-3.52-1.67-3.52,0,0,.82,2.12.54,3.83-.27,3.58-5.36,7.69-4.21,13.97.64,3.47,4.11,6.23,4.11,6.23,0,0-1.11-2.28-1.89-6.59-.31-1.7.24-3.03.99-5.06l.28.26.95,1.13Z"/>
    <path class="st1" d="M74.64,14.78s-9.02,1.46-13.48,2.89c-4.47,1.43-10.98,4.24-13.93,7.94-2.95,3.69-.47,9.54-1.22,13.44-.75,3.9-6.54,7.85-6.54,7.85,0,0,6.73-1.72,9.21-7.15,1.82-3.98-.49-6.76,2.3-12.91,2.8-6.15,23.65-12.06,23.65-12.06Z"/>
    <path class="st1" d="M74.88,15.22s-7.44,2.31-9.79,9.58l3.33-.74s.05-4.53,6.45-8.84Z"/>
    <path class="st1" d="M86.66,25.28s-11.72-2.34-23.24,1.04c-11.52,3.38-9.9,9.4-10.03,12.75-.12,3.36-2.96,10.8-13.1,9.82,0,0,6.01,3.28,12.7-2.11,6.69-5.4,2.02-11.94,7.41-15.05,5.38-3.12,9.55-5.7,26.25-6.45Z"/>
    <path class="st1" d="M57.46,41.93s4.58.64,7.28,3.79c0,0-3.69-2.86-7.88-2.12,0,0,.4-.83.61-1.66Z"/>
    <path class="st1" d="M77.27,36.93s-11.06.26-11.17,9.56c-.2-.35-6.08-10.59,11.17-9.56Z"/>
    <path class="st1" d="M85.86,25.87h0c-11.14,2.29-8.59,11.07-8.59,11.07h0c-5.67-11.26,8.59-11.07,8.59-11.07Z"/>
    <path class="st1" d="M54.97,54.74c2.91-7.84,10.77-8.15,11.06-8.16-8.36-1.64-10.49,2.58-10.98,5.55-7.15-1.4-13.27-1.54-13.27-1.54,8.6,1.2,13.19,4.15,13.19,4.15Z"/>
    <path class="st1" d="M9.81,78.05s1.77-.96,3.83-.76c1.27.12,3.73-.8,3.73-.8-1.03,0-3.48-1.23-5.64-.96-2.15.27-1.92,2.52-1.92,2.52Z"/>
    <path class="st1" d="M50.93,72.51s-.17-1.69,1.45-1.89c1.62-.2,3.45.72,4.23.72,0,0-1.84.69-2.8.6-1.54-.15-2.87.57-2.87.57Z"/>
    <path class="st1" d="M66.72,78.93s1.59-.87,3.45-.69c1.15.11,2.9-.04,2.9-.04-.94,0-2.4-1.91-4.62-1.54-1.92.32-1.73,2.28-1.73,2.28Z"/>
    <path class="st1" d="M76.36,36.5c-13.46-3.25-17.66-.92-17.66-.92,0,0,.3-.76.49-1.19.3-.67.38-.85.47-1.01,9.87-.38,16.7,3.12,16.7,3.12Z"/>
    <path class="st1" d="M24.8,27.94s-1.52-1.63-3.29-1.63c-2.57,0-4.71,2.74-7,2.74-2.29,0-3.43-.77-3.43-.77,0,0,1.38,1.87,3.56,1.87,2.84,0,4.93-2.79,6.82-2.79,1.87,0,3.34.58,3.34.58Z"/>
    <path class="st1" d="M30.68,30.88s.4,1.43.17,4.05c-.22,4.48-8.99,10.66-8.88,18.09.06,4.44,3.34,7.09,3.34,7.09,0,0-1.47-3.92-.81-7.84.91-5.45,7.77-11.66,7.55-17-.13-3.15-1.36-4.39-1.36-4.39Z"/>
    <path class="st1" d="M26.44,60.03s-1.33-3.12-.33-5.9c.65-1.79,2.34-3.31,5.68-4.15,0,0-5.83,5.31-1.56,9.9,0,0-3.05,3.24-4.22,6.01-1.16,2.77-3.71,8.57-4.54,9.92-.85,1.34-2.03,3.08-5.37,4.58-3.69.32-7.73.94-7.99,3.79,0,0-.71-.71-.65-2.51.07-1.8,3.05-3.81,6.18-3.71,3.12.12,5.91-.68,7.38-4.45,1.46-3.77,4.66-12.83,5.42-13.49Z"/>
    <path class="st1" d="M31.42,60.33s-4.76,14.59-13.1,19.94c0,0,5.08-.72,6.65-.09,1.57.64,3.18,1.71,1.65,4.15,0,0,3.02-1.66,2.19-4.16-.66-1.98-3.62-2.14-3.62-2.14,0,0-.85-.37-.36-1.63.49-1.27,3.68-5.46,4.19-6.22.51-.77,4.64-7.01,4.81-7.37,0,0,3.64.52,5.39-2.96,1.82-3.61-2.06-7.1-2.06-7.1,0,0,1.7,3.88-.27,5.78-2.33,2.25-5.47,1.78-5.47,1.78Z"/>
    <path class="st1" d="M35.47,63.73s1.76-.36,2.35-.81c0,0,.81.88,4.17.81.28,0,.47,0,.58,0,3.73-.46,8.28-1.8,15.42-4.78l.77,1.27c-5.58,1.88-12.31,7.18-20.75,6.34-.6-.06-3.37-.62-3.95-.8.35-.47,1.4-2.05,1.4-2.05Z"/>
    <path class="st1" d="M59.5,70.82c-.72,1.2-1.81,2.81-4.12,3.59-2.51-.05-5.52.57-5.72,2.7,0,0-.53-.54-.49-1.88.05-1.36,1.9-2.83,4.64-2.68,2.34.13,3.86-.84,4.87-3.41.69-1.73-.04-5.43.88-7.78,0,0,1.26.98,1.82,1.44,0,0,.05-.02-.22.63-.87,2.08-.46,5.08-1.66,7.39Z"/>
    <path class="st1" d="M63.06,63.58s.72.49,1.41.86c-.57,1.39-.76,2.27-.87,2.57-.24.66-1.03,3.32-1.41,4.27-.37.94.26,1.22.26,1.22,0,0,2.23.13,2.72,1.61.63,1.87-1.63,3.11-1.63,3.11,1.14-1.82-.06-2.62-1.24-3.11-1.18-.48-4.62.06-4.62.06,3.62-1.98,4.8-9.23,5.39-10.59Z"/>
    <path class="st1" d="M76.75,78.34s.96,2.01.41,2.75c-2.19.06-3.67,0-6.9.33-2.99.3-4.92.5-5.16,3.07,0,0-.65-.65-.59-2.27.06-1.62,2.75-3.43,5.57-3.32,0,0,3.53.06,3.92-.15.84-.45-1.3-4.55-1.67-5.29-3.13-6.25-3.05-8.28-3.17-8.61,0,0-8.75-1.64-10.9-7.6,6.94,5.91,12.69,5.85,12.69,5.85.73,2.83,3.71,11.22,5.79,15.24Z"/>
    <path class="st1" d="M79.02,45.48c.91-.03,1.68-.02,2.54.04,3.8-8.11,10.27-16.51,10.27-21.46,0-3.2-2.2-5.35-2.2-5.35l-.37,1.2s-1.78-4.09-3.1-5.12l.04.03s4.11,1.64,5.51,2.77v-.02l-1.04.27h-.04c2.62,2.42,2.47,6.26,2.47,6.26.21,5.89-6.17,12.66-9.86,21.56,8.32,1.04,14.13,6.21,14.13,11.84,0,7.89-4.83,10.67-9.22,10.73-1.55.02-3.27-.23-5.27-1.42-2.34-1.38-4.3-3.96-4.3-8.98s1.15-7.97,1.79-9.69l-.02-.02c-1.99.07-3.96.31-5.67.67,0,0-1.55.46-2.25.67,1.86,1.09,3.68,2.86,4.32,5.63.4,1.98.21,4.51-.77,7.72-.21,3.15,1.16,7.82,2.22,11.29l1.19,3.17c.64,1.4,1.62,1.8,1.62,1.8,0,0,2.44.36,3.12,1.83.92,1.97-.65,2.97-.65,2.97.56-2.36-1.48-2.62-2.69-2.8h-.1c-1.18-.19-1.97-.08-1.97-.08.15-.8-1.38-5.07-1.28-4.79,0,0-1.97-5.65-2.8-8.13-.86-2.56-1.45-6.19-1.45-6.19,0,0,5.9-9.83-7.3-14.27,0,0,.93-.1,1.64,0,1.49-.58,3.42-.99,3.42-.99,2.35-.64,4.99-1.05,8.05-1.15ZM82.3,48.13c-1.07,3.19-1.74,6.65-1.61,10.42.12,3.45,2.35,8.25,7.8,7.77,2.83-.25,4.6-2.08,5.51-3.94,1.07-2.19,1-4.43,1-4.43,0,0,.07-3.57-3.35-6.6-1.88-1.71-4.77-3.03-9.35-3.21"/>
    <path class="st1" d="M23.96,22.76s-4.56-1.46-7.4.86l1.49,2.57s4.33-3.53,7.53,1.54c0,0-2.38,3.12-7.42,2.24,0,0,1.37,2.36,4.71,2.34,3.34-.02,6.59-3.38,7.64-2.25,0,0-.35-4.79,5.48-6.47,0,0,1.34,1.09,1.57,1.7,0,0,1.92-1.51,1.81-5.21-.1-3.7-2.19-5.39-2.94-6.02,0,0,.44,2.21-.54,4.27-.57,1.2-1.83,2.69-3.76,2.75,0,0-1.58.03-2.64-.29-1.05-.32-5.23-1.73-5.55,1.98ZM29.05,22.46s-1.39,2.39-3.55,1c0,0,.05-1.43,1.28-1.29,1.23.14,1.07.64,2.28.29Z"/>
  </g>
</svg>